<svg version="1.1"
	 id="svg2" xmlns:cc="http://creativecommons.org/ns#" xmlns:dc="http://purl.org/dc/elements/1.1/" xmlns:rdf="http://www.w3.org/1999/02/22-rdf-syntax-ns#"
	 xmlns="http://www.w3.org/2000/svg" xmlns:xlink="http://www.w3.org/1999/xlink" x="0px" y="0px" viewBox="0 0 320 320"
	 style="enable-background:new 0 0 320 320;" xml:space="preserve">
<style type="text/css">
	.st0{fill:#4B4B4B;}
</style>
<g>
	<path class="st0" d="M51.6,5.1L51.6,5.1L51.6,5.1L51.5,5c-27.8,28.4-45,67.8-45,111.1c0,43.3,17.2,82.6,45,111.1l13-13.3v0
		c-24.5-25.1-39.6-59.6-39.6-97.8c0-38.1,15.1-72.7,39.6-97.8L51.6,5.1z"/>
	<path class="st0" d="M268.5,5L268.5,5l-13,13.3c24.5,25.1,39.6,59.7,39.6,97.8c0,38.2-15.1,72.7-39.6,97.8l13,13.3
		c27.8-28.5,45-67.8,45-111.1C313.5,72.8,296.3,33.4,268.5,5z"/>
	<path class="st0" d="M107.9,169.4c-13.3-13.7-21.6-32.5-21.6-53.3c0-20.8,8.2-39.7,21.6-53.4l-13-13.3c-16.7,17.1-27,40.7-27,66.6
		c0,26,10.4,49.6,27,66.6L107.9,169.4z"/>
	<path class="st0" d="M231.3,56.4c-1.7-2.1-3.5-4.2-5.4-6.2c-0.2-0.3-0.4-0.5-0.7-0.8l0,0c0,0,0-0.1-0.1-0.1l-12.9,13.2l0,0l0,0
		l-0.1,0.1c13.4,13.7,21.6,32.5,21.6,53.4c0,20.8-8.3,39.6-21.6,53.3l13,13.3c16.7-17.1,27-40.6,27-66.6
		C252.1,93.5,244.3,72.7,231.3,56.4L231.3,56.4z"/>
	<path class="st0" d="M190.4,172.3l-1.5-4.4l-13.5-40.6l0,0c1.2-0.9,2.4-1.9,3.4-3c4.9-5,7.8-11.8,7.8-19.3c0-7.6-3-14.4-7.8-19.3h0
		c-4.8-4.9-11.5-8-18.8-8c-7.4,0-14.1,3.1-18.9,8c-4.8,4.9-7.8,11.8-7.8,19.3c0,7.5,3,14.3,7.8,19.3v0c1.1,1.1,2.2,2.1,3.5,3
		l-13.5,40.6l-1.5,4.4L96.3,272.8L95,277l-8.6,25.9c-1.6,4.8,1,10.1,5.6,11.7c0.9,0.3,1.9,0.5,2.9,0.5c3.9,0,7.3-2.5,8.5-6.2
		l3.5-10.5l53.1-40.4l53.1,40.4l3.5,10.5c1.2,3.7,4.6,6.2,8.5,6.2c1,0,2-0.2,2.9-0.5c2.3-0.8,4.1-2.4,5.1-4.6
		c1.1-2.2,1.2-4.7,0.4-7.1L190.4,172.3z M178.9,255.1l-7.6-5.8l20.5-15.5l7.5,22.7l6.1,18.8L178.9,255.1z M114.5,275.2l13.7-41.4
		l15.9,12l4.6,3.5L130,263.5L114.5,275.2z M183.9,210.1l-14.5-15.4l7-7.5l1.5,4.5l4.2,12.7l1,3.1L183.9,210.1z M171.5,172.5
		l-11.1,11.8l-0.4,0.4l-11.5-12.2l11.5-34.6L171.5,172.5z M136.1,210.1l1.9-5.8l4.2-12.7l1.4-4.3l7,7.5l-7.7,8.2L136.1,210.1z
		 M140.2,225.7l19.8-21.1l17.7,18.8l2.1,2.3l-19.8,15l-17.6-13.4L140.2,225.7z"/>
</g>
</svg>
